<?xml version="1.0" encoding="UTF-8"?>
<svg version="1.1" xmlns="http://www.w3.org/2000/svg" width="500" height="200">
<path d="M0 0 C165 0 330 0 500 0 C500 66 500 132 500 200 C335 200 170 200 0 200 C0 134 0 68 0 0 Z " fill="#FEFEFE" transform="translate(0,0)"/>
<path d="M0 0 C6.70997739 4.96478148 12.93625472 10.6753491 17.32470703 17.84521484 C17.32470703 18.50521484 17.32470703 19.16521484 17.32470703 19.84521484 C15.34470703 19.84521484 13.36470703 19.84521484 11.32470703 19.84521484 C12.4271411 23.15251705 13.18203761 23.80066727 15.79736328 25.95068359 C20.70197733 30.1132025 25.22669603 34.59991632 29.76220703 39.15771484 C30.57625 39.96789062 31.39029297 40.77806641 32.22900391 41.61279297 C33.00179687 42.386875 33.77458984 43.16095703 34.57080078 43.95849609 C35.26874756 44.6575708 35.96669434 45.35664551 36.68579102 46.0769043 C38.90496598 48.47128599 39.30063247 49.69474884 39.82470703 52.97021484 C39.30292248 57.0140451 39.03189344 57.58389474 36.44189453 60.39990234 C35.80541992 61.09583496 35.16894531 61.79176758 34.51318359 62.50878906 C33.79098633 63.27980957 33.06878906 64.05083008 32.32470703 64.84521484 C31.53290039 65.70775879 30.74109375 66.57030273 29.92529297 67.45898438 C27.30048872 70.28842929 24.63042341 73.06875859 21.94970703 75.84521484 C21.05509766 76.81072266 20.16048828 77.77623047 19.23876953 78.77099609 C11.74985117 86.46673051 11.74985117 86.46673051 6.44580078 86.72021484 C2.50334302 86.23046854 0.37853142 84.88966504 -2.23779297 81.84521484 C-2.89908203 81.10271484 -3.56037109 80.36021484 -4.24169922 79.59521484 C-4.71478516 79.01771484 -5.18787109 78.44021484 -5.67529297 77.84521484 C-4.1495664 74.51885603 -2.74184793 72.88958482 0.32470703 70.84521484 C2.63470703 72.82521484 4.94470703 74.80521484 7.32470703 76.84521484 C14.58470703 69.58521484 21.84470703 62.32521484 29.32470703 54.84521484 C27.36766336 49.95260566 26.52117256 48.78962876 22.69970703 45.59521484 C18.38730333 41.87568864 14.65438399 37.97025436 11.01611328 33.59521484 C9.34324406 31.59451874 9.34324406 31.59451874 6.32470703 30.84521484 C4.34470703 32.82521484 2.36470703 34.80521484 0.32470703 36.84521484 C1.83846784 40.4128577 3.92983832 42.68227772 6.67626953 45.39208984 C7.95244141 46.65859375 7.95244141 46.65859375 9.25439453 47.95068359 C10.14384766 48.82337891 11.03330078 49.69607422 11.94970703 50.59521484 C12.84689453 51.48337891 13.74408203 52.37154297 14.66845703 53.28662109 C16.88277707 55.47738454 19.10163138 57.66334248 21.32470703 59.84521484 C19.78597526 63.56381663 18.84959315 64.20155026 15.32470703 66.84521484 C6.08470703 57.60521484 -3.15529297 48.36521484 -12.67529297 38.84521484 C-11.05791573 35.61046036 -10.19900074 34.13949463 -7.67529297 31.84521484 C-8.25279297 32.13396484 -8.83029297 32.42271484 -9.42529297 32.72021484 C-11.5086263 33.76188151 -13.59195964 34.80354818 -15.67529297 35.84521484 C-17.32529297 34.19521484 -18.97529297 32.54521484 -20.67529297 30.84521484 C-24.49213523 32.40022465 -26.86725029 34.88116979 -29.67529297 37.84521484 C-28.28801735 40.94089469 -26.6634302 43.14824335 -24.33154297 45.60302734 C-23.66638672 46.30693604 -23.00123047 47.01084473 -22.31591797 47.73608398 C-21.60951172 48.47334717 -20.90310547 49.21061035 -20.17529297 49.97021484 C-19.45857422 50.72488037 -18.74185547 51.4795459 -18.00341797 52.25708008 C-12.6494245 57.87648622 -7.22355084 63.41699139 -1.67529297 68.84521484 C-15.33868845 85.31135812 -15.33868845 85.31135812 -21.80029297 86.34521484 C-27.30569279 85.63484067 -29.8843707 82.69382506 -33.67529297 78.84521484 C-34.24763672 78.27416016 -34.81998047 77.70310547 -35.40966797 77.11474609 C-35.82732422 76.69580078 -36.24498047 76.27685547 -36.67529297 75.84521484 C-39.86089249 77.24154591 -41.91473142 78.89078977 -44.30029297 81.40771484 C-47.17091512 84.42249488 -48.58506888 85.67077899 -52.80029297 86.34521484 C-58.36955384 85.62660054 -60.82140243 82.72173096 -64.67529297 78.84521484 C-65.34431641 78.22388672 -66.01333984 77.60255859 -66.70263672 76.96240234 C-72.33774415 71.63843581 -72.33774415 71.63843581 -72.67529297 67.84521484 C-71.24755859 65.86572266 -71.24755859 65.86572266 -69.08154297 63.79833984 C-68.29779297 63.03521484 -67.51404297 62.27208984 -66.70654297 61.48583984 C-65.45357422 60.30248047 -65.45357422 60.30248047 -64.17529297 59.09521484 C-62.55830571 57.5404194 -60.94369453 55.98314882 -59.33154297 54.42333984 C-58.54263672 53.6634375 -57.75373047 52.90353516 -56.94091797 52.12060547 C-54.20447417 49.37236665 -51.71039566 46.47177624 -49.26318359 43.46533203 C-47.67529297 41.84521484 -47.67529297 41.84521484 -43.67529297 39.84521484 C-45.98529297 37.20521484 -48.29529297 34.56521484 -50.67529297 31.84521484 C-55.40837028 33.02848417 -57.40214794 35.29713013 -60.61279297 38.72021484 C-61.63770591 39.80572012 -62.66757522 40.88656968 -63.70263672 41.96240234 C-64.15372803 42.44306152 -64.60481934 42.9237207 -65.06958008 43.41894531 C-66.67529297 44.84521484 -66.67529297 44.84521484 -69.07080078 46.24731445 C-71.91162192 47.99020668 -73.98128643 49.92407897 -76.31982422 52.29443359 C-77.1609375 53.14199219 -78.00205078 53.98955078 -78.86865234 54.86279297 C-79.73296875 55.74386719 -80.59728516 56.62494141 -81.48779297 57.53271484 C-82.37144531 58.42539063 -83.25509766 59.31806641 -84.16552734 60.23779297 C-86.34004026 62.43581413 -88.50973724 64.63837414 -90.67529297 66.84521484 C-92.65529297 65.19521484 -94.63529297 63.54521484 -96.67529297 61.84521484 C-95.16932459 58.26695697 -93.09373016 56.09428796 -90.28857422 53.43896484 C-89.43328125 52.61267578 -88.57798828 51.78638672 -87.69677734 50.93505859 C-85.88465558 49.2026336 -84.06689073 47.47609287 -82.24365234 45.75537109 C-81.39222656 44.92908203 -80.54080078 44.10279297 -79.66357422 43.25146484 C-78.8750708 42.501875 -78.08656738 41.75228516 -77.27416992 40.97998047 C-75.44296838 39.00430621 -75.44296838 39.00430621 -75.76586914 36.71044922 C-77.10676318 33.96026654 -79.22737389 32.60269521 -81.67529297 30.84521484 C-87.11262352 35.37513281 -92.13988228 40.188157 -97.11279297 45.22021484 C-97.84433594 45.95626953 -98.57587891 46.69232422 -99.32958984 47.45068359 C-101.1138202 49.24657558 -102.89565421 51.04477469 -104.67529297 52.84521484 C-102.25257424 58.47976181 -97.55704964 62.37262177 -93.30029297 66.65771484 C-92.43662109 67.55425781 -91.57294922 68.45080078 -90.68310547 69.37451172 C-89.84779297 70.21691406 -89.01248047 71.05931641 -88.15185547 71.92724609 C-87.38953613 72.70302002 -86.6272168 73.47879395 -85.84179688 74.27807617 C-83.83079014 76.08078485 -83.83079014 76.08078485 -81.53613281 75.71899414 C-79.04805921 74.55068984 -77.5036183 72.86943217 -75.67529297 70.84521484 C-72.27467282 72.25236801 -70.78299599 73.87389712 -68.67529297 76.84521484 C-69.9566333 78.37191822 -71.27717542 79.86576156 -72.61279297 81.34521484 C-73.34369141 82.18052734 -74.07458984 83.01583984 -74.82763672 83.87646484 C-78.28685839 86.26802551 -80.24333894 86.37519621 -84.35157776 86.27252197 C-88.46704432 85.51573035 -90.6634803 82.99220983 -93.42529297 80.00927734 C-94.00947998 79.41472748 -94.59366699 78.82017761 -95.19555664 78.20761108 C-97.04435481 76.31530923 -98.85914498 74.39381865 -100.67529297 72.47021484 C-101.9245436 71.18436444 -103.17582819 69.90048677 -104.42919922 68.61865234 C-114.51791344 58.2354007 -114.51791344 58.2354007 -115.05029297 53.53271484 C-114.56794988 48.7896745 -113.26034941 47.89632671 -109.67529297 44.84521484 C-108.51851097 43.7314759 -107.37325742 42.60567929 -106.23779297 41.47021484 C-105.63966797 40.87466797 -105.04154297 40.27912109 -104.42529297 39.66552734 C-102.77519656 37.94913242 -101.25251893 36.18099686 -99.73779297 34.34521484 C-96.9451169 31.01202083 -93.82580637 28.22474095 -90.50732422 25.42333984 C-88.81338346 23.96416699 -87.23364813 22.44699166 -85.67529297 20.84521484 C-87.98529297 20.51521484 -90.29529297 20.18521484 -92.67529297 19.84521484 C-88.51834117 7.82203117 -76.45523133 0.05336092 -65.71435547 -5.75634766 C-44.78527519 -15.78120123 -18.98591803 -13.08705804 0 0 Z " fill="#FAFAFB" transform="translate(287.67529296875,46.15478515625)"/>
<path d="M0 0 C5.05310826 1.26327706 7.90909643 4.22945224 11.5 7.875 C12.07234375 8.44605469 12.6446875 9.01710938 13.234375 9.60546875 C13.65203125 10.02441406 14.0696875 10.44335938 14.5 10.875 C17.95874971 9.39156333 20.15331415 7.38556963 22.8125 4.75 C25.75269033 2.12208479 27.19119379 0.95626479 31.0625 -0.0625 C37.06423503 1.57433683 41.1046284 5.7819426 44.5 10.875 C42.85 12.525 41.2 14.175 39.5 15.875 C36.61562221 14.58200306 34.62780579 13.21558637 32.5 10.875 C28.68315774 12.43000981 26.30804268 14.91095495 23.5 17.875 C24.88727562 20.97067985 26.51186277 23.17802851 28.84375 25.6328125 C29.50890625 26.33672119 30.1740625 27.04062988 30.859375 27.76586914 C31.56578125 28.50313232 32.2721875 29.24039551 33 30 C34.07507813 31.13199829 34.07507813 31.13199829 35.171875 32.28686523 C40.52586847 37.90627137 45.95174212 43.44677655 51.5 48.875 C37.83660451 65.34114328 37.83660451 65.34114328 31.375 66.375 C25.86960017 65.66462583 23.29092227 62.72361022 19.5 58.875 C18.64148438 58.01841797 18.64148438 58.01841797 17.765625 57.14453125 C17.34796875 56.72558594 16.9303125 56.30664062 16.5 55.875 C13.31440048 57.27133107 11.26056155 58.92057493 8.875 61.4375 C6.00437785 64.45228003 4.59022409 65.70056415 0.375 66.375 C-5.19426087 65.65638569 -7.64610946 62.75151612 -11.5 58.875 C-12.16902344 58.25367188 -12.83804688 57.63234375 -13.52734375 56.9921875 C-19.16245119 51.66822097 -19.16245119 51.66822097 -19.5 47.875 C-18.07226562 45.89550781 -18.07226562 45.89550781 -15.90625 43.828125 C-15.1225 43.065 -14.33875 42.301875 -13.53125 41.515625 C-12.6959375 40.72671875 -11.860625 39.9378125 -11 39.125 C-9.38301274 37.57020456 -7.76840156 36.01293397 -6.15625 34.453125 C-5.36734375 33.69322266 -4.5784375 32.93332031 -3.765625 32.15039062 C-1.0291812 29.40215181 1.46489731 26.5015614 3.91210938 23.49511719 C5.63919635 21.73297863 7.24745723 20.84752253 9.5 19.875 C8.42807816 18.5531638 7.34197305 17.24282073 6.25 15.9375 C5.64671875 15.20660156 5.0434375 14.47570312 4.421875 13.72265625 C2.36928844 11.74933624 1.33675082 11.01226214 -1.5 10.875 C-4.27122275 13.22926499 -4.27122275 13.22926499 -6.5 15.875 C-8.96800047 14.72326645 -10.54783565 13.82716435 -12.5 11.875 C-12.21401946 8.23251101 -10.51400825 6.50927772 -7.875 4.125 C-5.07038231 1.81942461 -3.58954682 0.8973867 0 0 Z " fill="#F84307" transform="translate(234.5,66.125)"/>
<path d="M0 0 C7.81735437 1.32747527 15.73669155 9.37897507 20.3125 15.5625 C19.74262642 20.22162371 16.51998325 22.73292243 13.30859375 25.859375 C12.71071548 26.45300842 12.11283722 27.04664185 11.49684143 27.65826416 C9.58815898 29.55017195 7.6693046 31.43137499 5.75 33.3125 C4.45309164 34.59436002 3.15685922 35.8769043 1.86132812 37.16015625 C-1.31382957 40.30226072 -4.49814946 43.43480539 -7.6875 46.5625 C-9.6675 44.9125 -11.6475 43.2625 -13.6875 41.5625 C-12.18153162 37.98424213 -10.10593719 35.81157311 -7.30078125 33.15625 C-6.0178418 31.91681641 -6.0178418 31.91681641 -4.70898438 30.65234375 C-2.89686261 28.91991876 -1.07909776 27.19337803 0.74414062 25.47265625 C1.59556641 24.64636719 2.44699219 23.82007812 3.32421875 22.96875 C4.11272217 22.21916016 4.90122559 21.46957031 5.71362305 20.69726562 C7.54482458 18.72159136 7.54482458 18.72159136 7.22192383 16.42773438 C5.88102979 13.67755169 3.76041908 12.31998037 1.3125 10.5625 C-4.12483055 15.09241796 -9.15208931 19.90544216 -14.125 24.9375 C-14.85654297 25.67355469 -15.58808594 26.40960938 -16.34179688 27.16796875 C-18.12602723 28.96386074 -19.90786124 30.76205985 -21.6875 32.5625 C-19.26478127 38.19704697 -14.56925667 42.08990693 -10.3125 46.375 C-9.44882813 47.27154297 -8.58515625 48.16808594 -7.6953125 49.09179688 C-6.86 49.93419922 -6.0246875 50.77660156 -5.1640625 51.64453125 C-4.40174316 52.42030518 -3.63942383 53.1960791 -2.85400391 53.99536133 C-0.84299718 55.79807001 -0.84299718 55.79807001 1.45166016 55.4362793 C3.93973376 54.26797499 5.48417467 52.58671733 7.3125 50.5625 C10.71312014 51.96965316 12.20479698 53.59118228 14.3125 56.5625 C13.03115967 58.08920338 11.71061755 59.58304672 10.375 61.0625 C9.64410156 61.8978125 8.91320312 62.733125 8.16015625 63.59375 C4.70093458 65.98531066 2.74445403 66.09248137 -1.36378479 65.98980713 C-5.47925135 65.23301551 -7.67568733 62.70949498 -10.4375 59.7265625 C-11.02168701 59.13201263 -11.60587402 58.53746277 -12.20776367 57.92489624 C-14.05656184 56.03259439 -15.87135201 54.11110381 -17.6875 52.1875 C-18.93675064 50.90164959 -20.18803522 49.61777193 -21.44140625 48.3359375 C-31.53012047 37.95268585 -31.53012047 37.95268585 -32.0625 33.25 C-31.58015691 28.50695965 -30.27255644 27.61361187 -26.6875 24.5625 C-25.530718 23.44876105 -24.38546445 22.32296445 -23.25 21.1875 C-22.651875 20.59195313 -22.05375 19.99640625 -21.4375 19.3828125 C-19.78740359 17.66641757 -18.26472597 15.89828201 -16.75 14.0625 C-13.95732393 10.72930599 -10.8380134 7.94202611 -7.51953125 5.140625 C-5.67446675 3.60673845 -5.67446675 3.60673845 -4.1171875 1.89453125 C-2.6875 0.5625 -2.6875 0.5625 0 0 Z " fill="#090AF6" transform="translate(204.6875,66.4375)"/>
<path d="M0 0 C8.43861302 2.20702187 14.65045959 10.11528624 20.56762695 16.11181641 C22.00083279 17.56354549 23.44214942 19.00684611 24.88476562 20.44921875 C32.83072414 28.44593215 32.83072414 28.44593215 33.546875 32.921875 C33.02509045 36.96570526 32.75406141 37.5355549 30.1640625 40.3515625 C29.52758789 41.04749512 28.89111328 41.74342773 28.23535156 42.46044922 C27.5131543 43.23146973 26.79095703 44.00249023 26.046875 44.796875 C25.25506836 45.65941895 24.46326172 46.52196289 23.64746094 47.41064453 C21.02265668 50.24008945 18.35259138 53.02041875 15.671875 55.796875 C14.32996094 57.24513672 14.32996094 57.24513672 12.9609375 58.72265625 C5.47201914 66.41839067 5.47201914 66.41839067 0.16796875 66.671875 C-3.77448901 66.18212869 -5.89930061 64.8413252 -8.515625 61.796875 C-9.17691406 61.054375 -9.83820313 60.311875 -10.51953125 59.546875 C-10.99261719 58.969375 -11.46570313 58.391875 -11.953125 57.796875 C-10.42739844 54.47051618 -9.01967996 52.84124498 -5.953125 50.796875 C-3.643125 52.776875 -1.333125 54.756875 1.046875 56.796875 C8.306875 49.536875 15.566875 42.276875 23.046875 34.796875 C21.08983133 29.90426582 20.24334053 28.74128891 16.421875 25.546875 C12.1094713 21.8273488 8.37655196 17.92191451 4.73828125 13.546875 C3.06541203 11.5461789 3.06541203 11.5461789 0.046875 10.796875 C-1.933125 12.776875 -3.913125 14.756875 -5.953125 16.796875 C-4.43936419 20.36451785 -2.34799371 22.63393787 0.3984375 25.34375 C1.24921875 26.18808594 2.1 27.03242187 2.9765625 27.90234375 C4.31074219 29.21138672 4.31074219 29.21138672 5.671875 30.546875 C6.5690625 31.43503906 7.46625 32.32320312 8.390625 33.23828125 C10.60494504 35.42904469 12.82379935 37.61500263 15.046875 39.796875 C13.50814323 43.51547679 12.57176112 44.15321041 9.046875 46.796875 C-0.193125 37.556875 -9.433125 28.316875 -18.953125 18.796875 C-16.63617589 14.16297678 -13.80025558 11.20346228 -10.203125 7.546875 C-9.5946875 6.8971875 -8.98625 6.2475 -8.359375 5.578125 C-5.63890884 2.81115515 -3.79048296 1.02282874 0 0 Z " fill="#0909F6" transform="translate(293.953125,66.203125)"/>
<path d="M0 0 C5.05310826 1.26327706 7.90909643 4.22945224 11.5 7.875 C12.07234375 8.44605469 12.6446875 9.01710938 13.234375 9.60546875 C13.65203125 10.02441406 14.0696875 10.44335938 14.5 10.875 C17.95874971 9.39156333 20.15331415 7.38556963 22.8125 4.75 C25.75269033 2.12208479 27.19119379 0.95626479 31.0625 -0.0625 C37.06423503 1.57433683 41.1046284 5.7819426 44.5 10.875 C42.85 12.525 41.2 14.175 39.5 15.875 C36.61562221 14.58200306 34.62780579 13.21558637 32.5 10.875 C29.62018877 12.04825643 28.12061333 13.25438667 25.875 15.5 C25.09125 16.28375 24.3075 17.0675 23.5 17.875 C22.84 17.875 22.18 17.875 21.5 17.875 C21.005 19.36 21.005 19.36 20.5 20.875 C18.5625 23.0625 18.5625 23.0625 16.5 24.875 C15.84 24.875 15.18 24.875 14.5 24.875 C14.5 25.535 14.5 26.195 14.5 26.875 C13.530625 27.679375 12.56125 28.48375 11.5625 29.3125 C8.30624673 31.58184377 8.30624673 31.58184377 7.5 34.875 C8.985 35.37 8.985 35.37 10.5 35.875 C11.88671875 37.50390625 11.88671875 37.50390625 13.1875 39.4375 C13.84298828 40.39849609 13.84298828 40.39849609 14.51171875 41.37890625 C14.83785156 41.87261719 15.16398437 42.36632812 15.5 42.875 C13.85 44.525 12.2 46.175 10.5 47.875 C7.34280428 46.48109461 5.2187347 44.83865028 2.8125 42.375 C1.90951172 41.46234375 1.90951172 41.46234375 0.98828125 40.53125 C-1.10975967 38.19642231 -1.49501342 36.90616614 -2 33.75 C-1.30098727 28.33265135 1.47668214 25.43220176 5.5 21.875 C7.734375 20.64453125 7.734375 20.64453125 9.5 19.875 C8.42807816 18.5531638 7.34197305 17.24282073 6.25 15.9375 C5.64671875 15.20660156 5.0434375 14.47570312 4.421875 13.72265625 C2.36928844 11.74933624 1.33675082 11.01226214 -1.5 10.875 C-4.27122275 13.22926499 -4.27122275 13.22926499 -6.5 15.875 C-8.96800047 14.72326645 -10.54783565 13.82716435 -12.5 11.875 C-12.21401946 8.23251101 -10.51400825 6.50927772 -7.875 4.125 C-5.07038231 1.81942461 -3.58954682 0.8973867 0 0 Z " fill="#2E980A" transform="translate(234.5,66.125)"/>
<path d="M0 0 C6.27866218 4.66446712 12.44629463 9.91761893 16.30859375 16.82910156 C16.30859375 17.48910156 16.30859375 18.14910156 16.30859375 18.82910156 C13.23855162 19.25998467 11.27724118 19.50570142 8.30859375 18.82910156 C6.28789654 17.07990772 4.78686818 15.15899057 3.140625 13.05566406 C-5.45088354 2.61395859 -18.67517588 -2.21470197 -31.69140625 -4.17089844 C-48.48540014 -5.74834116 -63.62685703 -0.76169038 -76.62890625 9.89160156 C-78.80124291 11.83361819 -80.47950207 13.85367364 -82.19140625 16.20410156 C-84.69140625 18.82910156 -84.69140625 18.82910156 -88.50390625 19.20410156 C-89.55578125 19.08035156 -90.60765625 18.95660156 -91.69140625 18.82910156 C-87.26865627 6.36696861 -74.38635883 -1.63472547 -62.94140625 -7.10839844 C-42.98276709 -16.08978606 -17.61991468 -12.19761992 0 0 Z " fill="#0B0CF4" transform="translate(287.69140625,46.1708984375)"/>
<path d="M0 0 C6.82998329 -0.56498024 11.35025739 -0.43870246 16.9609375 3.625 C27.97148754 11.04973872 42.64287045 11.53733011 55.375 9.25 C61.78855192 7.7193708 67.95329591 5.43225132 73.4375 1.75 C78.33874705 -0.65763013 82.63718946 -0.34911606 88 0 C77.02149604 11.75538134 61.98406234 16.96003877 46.22167969 17.51977539 C29.03351397 17.7522274 15.68839089 13.45722566 2 3 C1.34 2.01 0.68 1.02 0 0 Z " fill="#0D0DF4" transform="translate(206,136)"/>
<path d="M0 0 C6.78376359 5.55035203 12.85522968 11.76442027 19 18 C5.33660451 34.46614328 5.33660451 34.46614328 -1.125 35.5 C-7.72264136 34.64869144 -11.33441403 29.95706352 -15.5 25.0625 C-15.995 24.381875 -16.49 23.70125 -17 23 C-15.35 21.35 -13.7 19.7 -12 18 C-8.56247993 19.5277867 -5.81046312 21.50181056 -3 24 C-3 24.66 -3 25.32 -3 26 C0.98175544 23.89851796 3.35039045 21.63094642 6 18 C5.39929688 17.53851563 4.79859375 17.07703125 4.1796875 16.6015625 C1.7447887 14.51332726 -0.20319588 12.66540137 -2 10 C-2.11286191 6.37815886 -1.27158008 3.37245152 0 0 Z " fill="#2C9909" transform="translate(267,97)"/>
<path d="M0 0 C6.82876356 1.70719089 11.46113653 7.32156273 15.5 12.875 C13.85 14.525 12.2 16.175 10.5 17.875 C7.57898986 16.68495883 6.20053772 15.55307805 4 13.1875 C1.81486592 10.65866394 1.81486592 10.65866394 -0.5625 10.8125 C-2.99392628 12.1458628 -4.64901982 13.82570051 -6.5 15.875 C-8.96800047 14.72326645 -10.54783565 13.82716435 -12.5 11.875 C-12.21401946 8.23251101 -10.51400825 6.50927772 -7.875 4.125 C-5.07038231 1.81942461 -3.58954682 0.8973867 0 0 Z " fill="#F9450B" transform="translate(234.5,66.125)"/>
<path d="M0 0 C6.75 5.625 6.75 5.625 9 9 C7.76600937 10.36877116 6.51219377 11.71969166 5.25 13.0625 C4.55390625 13.81660156 3.8578125 14.57070312 3.140625 15.34765625 C1 17 1 17 -1.0625 16.96875 C-4.62173571 15.18913214 -6.54359879 12.07050151 -9 9 C-6.03 6.03 -3.06 3.06 0 0 Z " fill="#FAF3EF" transform="translate(235,106)"/>
<path d="M0 0 C7.57142857 6.28571429 7.57142857 6.28571429 10 10 C8.90536178 11.17561146 7.79892814 12.3402489 6.6875 13.5 C6.07261719 14.1496875 5.45773437 14.799375 4.82421875 15.46875 C3 17 3 17 0 17 C-3.11102291 14.20007938 -5.4786752 11.3617664 -8 8 C-5.36 5.36 -2.72 2.72 0 0 Z " fill="#F5F7F1" transform="translate(264,106)"/>
<path d="M0 0 C3.82792868 1.5595265 6.36359864 3.83631836 9 7 C8.70477145 10.36828935 7.3529145 11.98876089 4.9375 14.25 C4.38964844 14.77078125 3.84179688 15.2915625 3.27734375 15.828125 C2.85582031 16.21484375 2.43429688 16.6015625 2 17 C-1.82792868 15.4404735 -4.36359864 13.16368164 -7 10 C-7.09132052 6.98642286 -6.02815944 6.03270128 -4.0625 3.75 C-2 2 -2 2 0 2 C0 1.34 0 0.68 0 0 Z " fill="#F3F2EA" transform="translate(249,91)"/>
<path d="M0 0 C0.66 0.33 1.32 0.66 2 1 C0.71034824 2.37562854 -0.62689293 3.70766393 -2 5 C-2.66 5 -3.32 5 -4 5 C-4.226875 5.556875 -4.45375 6.11375 -4.6875 6.6875 C-6.35896766 9.63246684 -8.55276352 11.68156544 -11 14 C-11.66 13.67 -12.32 13.34 -13 13 C-11.21188257 11.01752198 -9.41974481 9.03896272 -7.625 7.0625 C-7.11710938 6.49853516 -6.60921875 5.93457031 -6.0859375 5.35351562 C-2.2265625 1.11328125 -2.2265625 1.11328125 0 0 Z " fill="#1B1CEC" transform="translate(193,76)"/>
<path d="M0 0 C0.66 0.33 1.32 0.66 2 1 C0.71034824 2.37562854 -0.62689293 3.70766393 -2 5 C-2.66 5 -3.32 5 -4 5 C-4.2475 5.61875 -4.495 6.2375 -4.75 6.875 C-6.20628639 9.35068687 -7.37812506 9.95125002 -10 11 C-8.55218207 7.55571735 -6.72305391 5.63869038 -3.875 3.25 C-3.15054688 2.63640625 -2.42609375 2.0228125 -1.6796875 1.390625 C-0.84824219 0.70226563 -0.84824219 0.70226563 0 0 Z " fill="#2020EB" transform="translate(211,47)"/>
<path d="M0 0 C0.99 0.33 1.98 0.66 3 1 C1.02 3.31 -0.96 5.62 -3 8 C-3.33 7.34 -3.66 6.68 -4 6 C-4.66 5.67 -5.32 5.34 -6 5 C-1.60546875 0.99609375 -1.60546875 0.99609375 0 0 Z " fill="#CAD2E0" transform="translate(278,77)"/>
<path d="M0 0 C0.66 0.66 1.32 1.32 2 2 C-0.97 4.475 -0.97 4.475 -4 7 C-4 4 -4 4 -2 1.8125 C-1.34 1.214375 -0.68 0.61625 0 0 Z " fill="#C7CCE2" transform="translate(285,116)"/>
<path d="M0 0 C0.66 0.99 1.32 1.98 2 3 C-0.31 4.65 -2.62 6.3 -5 8 C-3.95206337 3.80825346 -3.08236365 2.78407039 0 0 Z " fill="#DA5511" transform="translate(256,84)"/>
</svg>
