<svg viewBox="0 0 241 36" xmlns="http://www.w3.org/2000/svg">
    <path d="M58.8,5.9l23.9,24.8l-2.5,2.4l-3.8-3.9l-3.7,3.6c-1.7,1.7-4,2.6-6.5,2.5l0,0c-2.4,0-4.7-1-6.4-2.8
        c-1.7-1.7-2.6-4-2.5-6.5c0-2.4,1-4.7,2.8-6.4l2.5-2.4l2.4,2.5l-2.5,2.4c-1.1,1-1.7,2.4-1.7,3.9c0,1.5,0.5,2.9,1.6,4
        c1,1.1,2.4,1.7,3.9,1.7l0,0c1.5,0,2.9-0.5,4-1.6l3.7-3.6L58.8,11L58.8,5.9L58.8,5.9z M14.8,6.6v23.6h-1.5h-0.8v-2.5
        c-1,1.8-2.9,2.8-5.3,2.8c-3.8,0-6.7-3.1-6.7-7.2c0-4.1,2.9-7.2,6.7-7.2c2.6,0,4.3,1.3,5.3,3.1V6.6H14.8z M12.6,23.2
        c0-3-2-5.1-4.9-5.1c-2.9,0-4.8,2.1-4.8,5.1c0,3,1.9,5.2,4.8,5.2C10.6,28.4,12.6,26.2,12.6,23.2z M29.9,24c0,2.7-1.7,4.4-4.3,4.4
        c-2.3,0-3.4-1.3-3.4-3.7v-8.2h-2.3v8.5c0,3.5,2.1,5.6,5.2,5.6c2.2,0,4-0.8,4.9-2.6v2.3h0.6h1.8V16.4h-2.3V24z M45,16.1
        c-2.2,0-4,0.8-4.9,2.7v-2.4h-0.9h-1.4v13.8h2.3v-7.6c0-2.7,1.7-4.4,4.3-4.4c2.3,0,3.4,1.4,3.4,3.8v8.1h2.3v-8.4
        C50.1,18.2,48,16.1,45,16.1z" fill="#005172" />

    <path
        d="M80.7,12.5c1.7,1.7,2.6,4,2.5,6.5c0,2.4-1,4.7-2.8,6.4l-0.3,0.3l-2.4-2.5l0.3-0.3c1.1-1,1.7-2.4,1.7-3.9
        c0-1.5-0.5-2.9-1.6-4c-0.6-0.6-1.2-1.1-2-1.4V9.9C77.9,10.3,79.5,11.2,80.7,12.5 M61.1,2.4l-1.7,1.7l2.4,2.5L63.5,5
        c1.7-1.6,4.3-1.6,5.9,0.1c1.6,1.7,1.6,4.3-0.1,5.9l-1.7,1.6l2.4,2.5l1.7-1.6c3.1-2.9,3.1-7.8,0.2-10.9C69-0.4,64.2-0.5,61.1,2.4
         M156.1,27.3c0.9,1.7,2.9,3.2,5.9,3.2c3.5,0,5-1.8,5-4.1c0-2.7-2.2-3.6-4.6-4.2c-2.4-0.7-3.3-1.1-3.3-2.4c0-1.1,0.9-1.8,2.4-1.8
        c1.3,0,2.3,0.6,3,1.6l1.6-1.2c-1-1.4-2.5-2.2-4.6-2.2c-2.5,0-4.5,1.4-4.5,3.8c0,2.6,2,3.5,4.2,4.1c2.4,0.7,3.6,1,3.6,2.5
        c0,1.3-1.1,2.1-2.9,2.1c-2,0-3.2-1-4-2.3L156.1,27.3 M172.9,26c0,3.3,1.6,4.5,3.7,4.5c1.7,0,2.8-0.7,3.4-1.4l-1.3-1.5
        c-0.4,0.4-0.9,0.8-1.9,0.8c-1,0-1.6-0.6-1.6-2.4v-7.7h3.9v-2h-3.9V6.6h-2.3v9.8h-2.1v2h2.1V26 M184.8,30.2h2.3v-7.3
        c0-3.2,1.6-4.6,3.6-4.6c0.9,0,1.5,0.2,1.9,0.5l0.9-2c-0.6-0.4-1.4-0.7-2.4-0.7c-1.6,0-3.2,0.5-4,2.6l0.1-2.4h-2.3V30.2z
         M207.2,22.3c-0.2-2.4-1.7-4.2-4.6-4.2c-2.6,0-4.4,1.7-4.8,4.2H207.2z M202.9,28.5c2.1,0,3.5-0.8,4.4-1.8l1.4,1.4
        c-1.3,1.4-3.1,2.4-5.8,2.4c-4.5,0-7.5-3.1-7.5-7.2c0-4,3.1-7.2,7.1-7.2c4.4,0,7.1,3.4,6.9,8h-11.8
        C198.1,26.7,199.9,28.5,202.9,28.5 M225.2,22.3c-0.2-2.4-1.7-4.2-4.6-4.2c-2.6,0-4.4,1.7-4.8,4.2H225.2z M221,28.5
        c2.1,0,3.5-0.8,4.4-1.8l1.4,1.4c-1.3,1.4-3.1,2.4-5.8,2.4c-4.5,0-7.5-3.1-7.5-7.2c0-4,3.1-7.2,7.1-7.2c4.4,0,7.1,3.4,6.9,8h-11.8
        C216.1,26.7,217.9,28.5,221,28.5 M233.4,26c0,3.3,1.6,4.5,3.7,4.5c1.7,0,2.8-0.7,3.4-1.4l-1.3-1.5c-0.4,0.4-0.9,0.8-1.9,0.8
        c-1,0-1.6-0.6-1.6-2.4v-7.7h3.9v-2h-3.9V6.6h-2.3v9.8h-2.1v2h2.1V26 M98.5,16.1c-2.6,0-4.3,1-5.3,2.8V6.6h-2.3v23.6h1.5h0.8v-2.5
        c1,1.8,2.9,2.8,5.3,2.8c3.8,0,6.7-3.1,6.7-7.2C105.2,19.1,102.3,16.1,98.5,16.1z M98,28.4c-2.9,0-4.9-2.2-4.9-5.2
        c0-3,2-5.1,4.9-5.1c2.9,0,4.8,2.1,4.8,5.1C102.8,26.2,100.9,28.4,98,28.4z M112.4,18.6v-2.2h-1h-1.4v13.8h2.3v-7.3
        c0-3.2,1.6-4.6,3.6-4.6c0.9,0,1.5,0.2,1.9,0.5l0.9-2c-0.6-0.4-1.4-0.7-2.4-0.7C114.8,16.1,113.3,16.6,112.4,18.6z M127.4,16.1
        c-2.6,0-4.4,1-5.6,2.7l1.4,1.3c0.9-1.2,2.1-2,4-2c2,0,3.2,1,3.2,3.7v0.3h-4.3c-2.9,0-5.2,1.3-5.2,4.2c0,2.9,2.1,4.2,5.1,4.2
        c2.1,0,3.5-0.6,4.5-1.9v1.6h0.4h1.8v-8.5C132.6,17.9,130.5,16.1,127.4,16.1z M130.5,25.6c0,1.8-1.8,3-3.9,3c-2.2,0-3.3-0.8-3.3-2.4
        c0-1.7,1.4-2.3,3.1-2.3h4.1V25.6z M149.3,6.6v12.3c-1-1.8-2.7-2.8-5.3-2.8c-3.7,0-6.7,3.1-6.7,7.2c0,4.1,2.9,7.2,6.7,7.2
        c2.4,0,4.3-1,5.3-2.8v2.5h0.7h1.6V6.6H149.3z M144.4,28.4c-2.9,0-4.8-2.2-4.8-5.2c0-3,1.9-5.1,4.8-5.1c2.9,0,4.9,2.1,4.9,5.1
        C149.4,26.2,147.4,28.4,144.4,28.4z M186.4,20h0.8v-3.7h-0.8V20z"
        fill="#3095b4"
    />
</svg>
